<svg width="40" height="39" viewBox="0 0 40 39" fill="none" xmlns="http://www.w3.org/2000/svg">
<rect x="13.4531" y="35.7744" width="7.91049" height="20.1054" rx="3.95525" transform="rotate(-116.413 13.4531 35.7744)" fill="url(#paint0_linear_3099_2374)"/>
<path d="M7.41992 23.6948C8.87003 23.6948 10.2223 24.1124 11.3652 24.8315C11.7185 25.3582 12.2226 25.7648 12.7998 26.0073C14.0633 27.3378 14.8398 29.1351 14.8398 31.1147C14.8398 35.2126 11.5178 38.5347 7.41992 38.5347C3.32217 38.5345 8.72892e-06 35.2125 0 31.1147C0 27.017 3.32216 23.6949 7.41992 23.6948Z" fill="url(#paint1_linear_3099_2374)"/>
<path d="M31.5947 11.8477C35.6926 11.8477 39.0146 15.1697 39.0146 19.2676C39.0146 23.3654 35.6926 26.6875 31.5947 26.6875C27.9768 26.6874 24.9657 24.0975 24.3096 20.6709C24.5949 19.937 24.57 19.1016 24.2285 18.3867C24.6642 14.7042 27.795 11.8477 31.5947 11.8477Z" fill="url(#paint2_linear_3099_2374)"/>
<rect x="9.93359" y="10.259" width="7.98249" height="20.1054" rx="3.99125" transform="rotate(-62.6423 9.93359 10.259)" fill="url(#paint3_linear_3099_2374)"/>
<rect x="1.19727" y="9.21484" width="9.57399" height="20.1054" rx="4.78699" fill="url(#paint4_linear_3099_2374)"/>
<path d="M7.41992 0C11.5178 0 14.8398 3.32206 14.8398 7.41992C14.8398 11.5177 11.5178 14.8398 7.41992 14.8398C3.32219 14.8397 4.71298e-05 11.5177 0 7.41992C0 3.32213 3.32216 0.000125085 7.41992 0Z" fill="#9BD379"/>
<defs>
<linearGradient id="paint0_linear_3099_2374" x1="18.384" y1="53.1355" x2="23.9809" y2="41.8969" gradientUnits="userSpaceOnUse">
<stop stop-color="#FFB99A"/>
<stop offset="1" stop-color="#EF4902"/>
</linearGradient>
<linearGradient id="paint1_linear_3099_2374" x1="5.08627" y1="24.353" x2="14.4211" y2="33.1493" gradientUnits="userSpaceOnUse">
<stop stop-color="#FFB48B"/>
<stop offset="1" stop-color="#EF4902"/>
</linearGradient>
<linearGradient id="paint2_linear_3099_2374" x1="27.3351" y1="23.5161" x2="38.9733" y2="16.0318" gradientUnits="userSpaceOnUse">
<stop stop-color="#FFB48B"/>
<stop offset="1" stop-color="#EF4902"/>
</linearGradient>
<linearGradient id="paint3_linear_3099_2374" x1="13.5186" y1="12.3117" x2="13.9248" y2="30.3644" gradientUnits="userSpaceOnUse">
<stop stop-color="#9BD379"/>
<stop offset="1" stop-color="#EF4902" stop-opacity="0.3"/>
</linearGradient>
<linearGradient id="paint4_linear_3099_2374" x1="5.98426" y1="9.21484" x2="5.98426" y2="29.3202" gradientUnits="userSpaceOnUse">
<stop offset="0.341653" stop-color="#9BD379"/>
<stop offset="1" stop-color="#FF5A00" stop-opacity="0.4"/>
</linearGradient>
</defs>
</svg>
