<svg width="154" height="138" viewBox="0 0 154 138" fill="none" xmlns="http://www.w3.org/2000/svg">
<path d="M11.3455 6.56707C16.7544 2.25019 23.675 -0.239201 31.1564 0.0181842L123.812 3.20592C139.957 3.76145 152.79 16.9551 152.897 33.1095L153.381 106.302C153.491 122.935 140.099 136.508 123.467 136.622L30.3266 137.259C13.6114 137.374 7.28264e-05 123.855 0 107.139V30.1211C2.23091e-05 24.0258 1.80729 18.3647 4.90816 13.6338C6.04705 11.8962 8.32153 11.4266 10.1967 12.3211L116.088 62.8365C121.903 65.6105 121.948 73.8718 116.164 76.709L25.9178 120.971H123.635C131.372 120.971 137.645 114.699 137.645 106.962V32.8522C137.645 25.2665 131.607 19.0584 124.024 18.8477L31.6968 16.2832L11.3455 6.56707ZM58.8401 49.4295C56.0394 47.9009 52.6237 49.9279 52.6237 53.1187V86.2712C52.6237 89.4619 56.0394 91.489 58.8401 89.9603L89.2078 73.3841C92.1266 71.7907 92.1267 67.5991 89.2078 66.0058L58.8401 49.4295Z" fill="url(#paint0_linear_3099_2213)"/>
<defs>
<linearGradient id="paint0_linear_3099_2213" x1="153.051" y1="1.9099e-06" x2="4.67761e-06" y2="137.294" gradientUnits="userSpaceOnUse">
<stop offset="0.194992" stop-color="#723DDA"/>
<stop offset="1" stop-color="#0F002D"/>
</linearGradient>
</defs>
</svg>
