<svg width="97" height="87" viewBox="0 0 97 87" fill="none" xmlns="http://www.w3.org/2000/svg">
<path d="M7.159 4.1438C10.572 1.41987 14.9389 -0.150935 19.6596 0.0114742L78.1251 2.02293C88.3126 2.37346 96.4097 10.6986 96.4772 20.892L96.783 67.0764C96.8525 77.5713 88.4022 86.1363 77.9073 86.2081L19.136 86.6101C8.58873 86.6822 4.59532e-05 78.152 0 67.6045V19.0063C1.4077e-05 15.1602 1.1404 11.5881 3.09703 8.60288C3.81567 7.50647 5.25086 7.21015 6.43406 7.77456L73.2512 39.6496C76.9204 41.4 76.9488 46.6128 73.2989 48.4031L16.3541 76.3325H78.0133C82.8955 76.3325 86.8533 72.3747 86.8533 67.4925V20.7297C86.8533 15.9431 83.0434 12.0258 78.2587 11.8929L20.0006 10.2746L7.159 4.1438ZM37.1279 31.1899C35.3607 30.2253 33.2054 31.5043 33.2054 33.5177V54.4368C33.2054 56.4502 35.3607 57.7292 37.1279 56.7647L56.2898 46.3051C58.1316 45.2997 58.1316 42.6548 56.2898 41.6494L37.1279 31.1899Z" fill="url(#paint0_linear_3099_2167)"/>
<defs>
<linearGradient id="paint0_linear_3099_2167" x1="96.5745" y1="1.20514e-06" x2="1.07672e-05" y2="86.6323" gradientUnits="userSpaceOnUse">
<stop offset="0.194992" stop-color="#723DDA"/>
<stop offset="1" stop-color="#0F002D"/>
</linearGradient>
</defs>
</svg>
