<svg width="91" height="87" viewBox="0 0 91 87" fill="none" xmlns="http://www.w3.org/2000/svg">
<g clip-path="url(#paint0_angular_3099_2168_clip_path)" data-figma-skip-parse="true"><g transform="matrix(-0.0422683 0.0344495 -0.0360785 -0.0442669 45.353 43.3053)"><foreignObject x="-1146.45" y="-1146.45" width="2292.91" height="2292.91"><div xmlns="http://www.w3.org/1999/xhtml" style="background:conic-gradient(from 90deg,rgba(27, 2, 72, 1) 0deg,rgba(212, 54, 104, 1) 94.9842deg,rgba(26, 2, 72, 1) 359.481deg,rgba(27, 2, 72, 1) 360deg);height:100%;width:100%;opacity:1"></div></foreignObject></g></g><path d="M13.5821 0.0114742C8.86134 -0.150935 4.49448 1.41987 1.08148 4.1438L13.9231 10.2746L72.1812 11.8929C76.9659 12.0258 80.7758 15.9431 80.7758 20.7297V67.4925C80.7757 72.3747 76.8179 76.3325 71.9358 76.3325H10.2765L0 81.5359C3.42251 84.7135 8.01673 86.6446 13.0585 86.6101L71.8298 86.2081C82.3247 86.1363 90.775 77.5713 90.7055 67.0764L90.3997 20.892C90.3321 10.6986 82.2351 2.37346 72.0476 2.02293L13.5821 0.0114742Z" data-figma-gradient-fill="{&#34;type&#34;:&#34;GRADIENT_ANGULAR&#34;,&#34;stops&#34;:[{&#34;color&#34;:{&#34;r&#34;:0.83173078298568726,&#34;g&#34;:0.21193139255046844,&#34;b&#34;:0.40869310498237610,&#34;a&#34;:1.0},&#34;position&#34;:0.26384499669075012},{&#34;color&#34;:{&#34;r&#34;:0.10196078568696976,&#34;g&#34;:0.0078431377187371254,&#34;b&#34;:0.28235295414924622,&#34;a&#34;:1.0},&#34;position&#34;:0.99855822324752808}],&#34;stopsVar&#34;:[{&#34;color&#34;:{&#34;r&#34;:0.83173078298568726,&#34;g&#34;:0.21193139255046844,&#34;b&#34;:0.40869310498237610,&#34;a&#34;:1.0},&#34;position&#34;:0.26384499669075012},{&#34;color&#34;:{&#34;r&#34;:0.10196078568696976,&#34;g&#34;:0.0078431377187371254,&#34;b&#34;:0.28235295414924622,&#34;a&#34;:1.0},&#34;position&#34;:0.99855822324752808}],&#34;transform&#34;:{&#34;m00&#34;:-84.536544799804688,&#34;m01&#34;:-72.156929016113281,&#34;m02&#34;:123.699707031250,&#34;m10&#34;:68.899078369140625,&#34;m11&#34;:-88.533828735351562,&#34;m12&#34;:53.122676849365234},&#34;opacity&#34;:1.0,&#34;blendMode&#34;:&#34;NORMAL&#34;,&#34;visible&#34;:true}"/>
<defs>
<clipPath id="paint0_angular_3099_2168_clip_path"><path d="M13.5821 0.0114742C8.86134 -0.150935 4.49448 1.41987 1.08148 4.1438L13.9231 10.2746L72.1812 11.8929C76.9659 12.0258 80.7758 15.9431 80.7758 20.7297V67.4925C80.7757 72.3747 76.8179 76.3325 71.9358 76.3325H10.2765L0 81.5359C3.42251 84.7135 8.01673 86.6446 13.0585 86.6101L71.8298 86.2081C82.3247 86.1363 90.775 77.5713 90.7055 67.0764L90.3997 20.892C90.3321 10.6986 82.2351 2.37346 72.0476 2.02293L13.5821 0.0114742Z"/></clipPath></defs>
</svg>
